<?xml version="1.0" standalone="no"?>
<!DOCTYPE svg PUBLIC "-//W3C//DTD SVG 20010904//EN"
 "http://www.w3.org/TR/2001/REC-SVG-20010904/DTD/svg10.dtd">
<svg version="1.0" xmlns="http://www.w3.org/2000/svg"
 width="144.000000pt" height="144.000000pt" viewBox="0 0 144.000000 144.000000"
 preserveAspectRatio="xMidYMid meet">
<metadata>
Created by potrace 1.11, written by Peter Selinger 2001-2013
</metadata>
<g transform="translate(0.000000,144.000000) scale(0.100000,-0.100000)"
fill="#000000" stroke="none">
<path d="M666 1255 c-27 -52 -55 -100 -62 -106 -10 -8 -28 -3 -70 21 -48 28
-55 30 -51 14 9 -28 45 -230 53 -291 4 -35 3 -53 -4 -53 -12 0 -52 40 -114
117 -24 29 -46 52 -49 53 -4 0 -12 -13 -19 -29 -6 -16 -20 -37 -30 -46 -17
-16 -24 -15 -94 2 -42 11 -76 17 -76 14 0 -3 9 -39 20 -80 11 -41 20 -89 20
-107 0 -27 -5 -34 -32 -43 -18 -6 -28 -15 -22 -19 5 -5 49 -42 99 -84 50 -41
111 -98 138 -126 49 -54 53 -71 25 -125 -5 -10 -8 -21 -6 -23 3 -2 38 3 79 10
41 8 110 18 153 22 l79 7 -6 -156 -7 -157 31 0 30 0 -7 155 -7 155 34 0 c36 0
209 -25 254 -36 l26 -6 -15 37 c-9 21 -16 46 -16 56 0 22 96 119 208 212 77
64 77 62 26 93 -17 10 -17 15 7 112 13 56 21 102 17 102 -3 0 -36 -7 -72 -15
-35 -8 -71 -13 -79 -10 -7 3 -24 24 -37 46 -18 33 -25 38 -34 27 -7 -7 -41
-46 -75 -85 -35 -40 -67 -73 -72 -73 -15 0 -10 51 16 194 33 178 33 171 -12
143 -67 -41 -71 -41 -101 6 -15 24 -40 71 -56 105 -16 34 -32 62 -35 62 -3 0
-28 -43 -55 -95z"/>
</g>
</svg>
